HIERARCHY
ROOT Hips
{
	OFFSET 0.000000 0.000000 0.000000
	CHANNELS 6 Xposition Yposition Zposition Xrotation Yrotation Zrotation
	JOINT LeftUpLeg_virtual
	{
		OFFSET 0.000000 0.000000 0.000000
		CHANNELS 3 Xrotation Yrotation Zrotation
		JOINT LeftUpLeg
		{
			OFFSET 11.394100 -6.187798 -0.413800
			CHANNELS 3 Xrotation Yrotation Zrotation
			JOINT LeftLeg
			{
				OFFSET 0.430247 -32.302673 3.732800
				CHANNELS 3 Xrotation Yrotation Zrotation
				JOINT LeftFoot
				{
					OFFSET -0.430247 -48.264931 -6.423300
					CHANNELS 3 Xrotation Yrotation Zrotation
					JOINT LeftToeBase
					{
						OFFSET 4.230900 -16.068199 23.438400
						CHANNELS 3 Xrotation Yrotation Zrotation
						JOINT LeftToe_End
						{
							OFFSET 4.510700 0.695400 19.974600
							CHANNELS 3 Xrotation Yrotation Zrotation
							End Site
							{
								OFFSET 0 0 0
							}
						}
					}
				}
			}
		}
	}
	JOINT RightUpLeg_virtual
	{
		OFFSET 0.000000 0.000000 0.000000
		CHANNELS 3 Xrotation Yrotation Zrotation
		JOINT RightUpLeg
		{
			OFFSET -11.333700 -6.187798 -0.413800
			CHANNELS 3 Xrotation Yrotation Zrotation
			JOINT RightLeg
			{
				OFFSET -0.430392 -32.302628 3.733000
				CHANNELS 3 Xrotation Yrotation Zrotation
				JOINT RightFoot
				{
					OFFSET 0.430392 -48.264973 -6.423500
					CHANNELS 3 Xrotation Yrotation Zrotation
					JOINT RightToeBase
					{
						OFFSET -4.230900 -16.068199 23.438400
						CHANNELS 3 Xrotation Yrotation Zrotation
						JOINT RightToe_End
						{
							OFFSET -4.510700 0.695400 19.974600
							CHANNELS 3 Xrotation Yrotation Zrotation
							End Site
							{
								OFFSET 0 0 0
							}
						}
					}
				}
			}
		}
	}
	JOINT Spine_virtual
	{
		OFFSET 0.000000 0.000000 0.000000
		CHANNELS 3 Xrotation Yrotation Zrotation
		JOINT Spine
		{
			OFFSET -0.002400 12.777504 0.315300
			CHANNELS 3 Xrotation Yrotation Zrotation
			JOINT Spine1
			{
				OFFSET -0.002067 5.816869 0.032633
				CHANNELS 3 Xrotation Yrotation Zrotation
				JOINT Spine1_split
				{
					OFFSET -0.002067 5.816869 0.032633
					CHANNELS 3 Xrotation Yrotation Zrotation
					JOINT Spine2
					{
						OFFSET -0.002067 5.816869 0.032633
						CHANNELS 3 Xrotation Yrotation Zrotation
						JOINT Neck_virtual
						{
							OFFSET 0.000000 0.000000 0.000000
							CHANNELS 3 Xrotation Yrotation Zrotation
							JOINT Neck
							{
								OFFSET -0.003700 21.199493 -0.826900
								CHANNELS 3 Xrotation Yrotation Zrotation
								JOINT Head
								{
									OFFSET 0.000000 20.442200 4.834800
									CHANNELS 3 Xrotation Yrotation Zrotation
									JOINT HeadTop_End
									{
										OFFSET 0.000000 34.668396 4.968400
										CHANNELS 3 Xrotation Yrotation Zrotation
										End Site
										{
											OFFSET 0 0 0
										}
									}
								}
							}
						}
						JOINT LeftShoulder_virtual
						{
							OFFSET 0.000000 0.000000 0.000000
							CHANNELS 3 Xrotation Yrotation Zrotation
							JOINT LeftShoulder
							{
								OFFSET 3.288150 8.794197 -1.372250
								CHANNELS 3 Xrotation Yrotation Zrotation
								JOINT LeftShoulder_split
								{
									OFFSET 3.288150 8.794197 -1.372250
									CHANNELS 3 Xrotation Yrotation Zrotation
									JOINT LeftArm
									{
										OFFSET 11.953299 -2.279007 -0.146200
										CHANNELS 3 Xrotation Yrotation Zrotation
										JOINT LeftForeArm
										{
											OFFSET 18.448900 0.000000 0.000000
											CHANNELS 3 Xrotation Yrotation Zrotation
											JOINT LeftHand
											{
												OFFSET 29.527798 0.000000 0.000000
												CHANNELS 3 Xrotation Yrotation Zrotation
												End Site
												{
													OFFSET 0 0 0
												}
											}
										}
									}
								}
							}
						}
						JOINT RightShoulder_virtual
						{
							OFFSET 0.000000 0.000000 0.000000
							CHANNELS 3 Xrotation Yrotation Zrotation
							JOINT RightShoulder
							{
								OFFSET -3.249400 8.794197 -1.372250
								CHANNELS 3 Xrotation Yrotation Zrotation
								JOINT RightShoulder_split
								{
									OFFSET -3.249400 8.794197 -1.372250
									CHANNELS 3 Xrotation Yrotation Zrotation
									JOINT RightArm
									{
										OFFSET -11.953299 -2.279007 -0.146200
										CHANNELS 3 Xrotation Yrotation Zrotation
										JOINT RightForeArm
										{
											OFFSET -18.448900 0.000000 0.000000
											CHANNELS 3 Xrotation Yrotation Zrotation
											JOINT RightHand
											{
												OFFSET -29.527802 0.000000 0.000000
												CHANNELS 3 Xrotation Yrotation Zrotation
												End Site
												{
													OFFSET 0 0 0
												}
											}
										}
									}
								}
							}
						}
					}
				}
			}
		}
	}
}
MOTION
Frames: 7
Frame Time: 0.03333333
-0.494942 100.861916 -5.685921 0.000000 0.000000 0.000000 3.666898 6.204809 -0.343713 -18.494129 8.257243 6.043211 24.069192 2.173485 1.254492 -10.202706 1.044552 -4.990998 -1.418247 0.638796 0.645692 0.000000 0.000000 0.000000 3.862138 5.969258 -0.679203 -13.962287 -5.814662 -6.295128 18.512842 -9.354689 1.623880 -4.410900 -16.532188 1.413349 -1.514432 -0.643438 -2.142027 0.000000 0.000000 0.000000 4.755123 3.206788 -1.518373 18.383237 -2.395217 -0.223990 0.314421 -0.079612 1.087963 1.078552 -0.385740 0.074110 0.000000 0.000000 0.000000 1.099407 -0.515737 0.471108 17.815587 3.020790 -0.746775 11.374215 2.388800 1.969329 0.000000 0.000000 0.000000 0.984320 0.002433 -0.061416 12.393183 -36.890695 -0.527840 1.682578 -1.377469 -3.139010 12.168738 17.478480 -47.112705 -1.349516 -36.947348 0.025410 0.000000 0.000000 0.000000 0.316572 -0.179918 0.761896 0.889865 -1.641683 7.426755 1.750360 5.930148 -1.459453 -0.281684 16.991878 36.561299 0.623194 15.129569 1.347187 0.000000 0.000000 0.000000 
-0.429708 101.006241 -5.495686 0.000000 0.000000 0.000000 3.452621 6.241744 -0.247385 -18.034196 8.439552 5.938875 23.616629 2.168286 1.258302 -10.089161 1.025428 -4.857413 -1.399845 0.646577 0.697547 0.000000 0.000000 0.000000 3.686720 5.968674 -0.589564 -13.555272 -5.793168 -6.343709 18.288626 -9.220497 1.575677 -4.205790 -16.565384 1.462854 -1.442727 -0.664226 -2.111630 0.000000 0.000000 0.000000 4.511401 3.355968 -1.368237 17.799113 -2.421027 -0.213897 0.352462 -0.109859 1.004472 1.082772 -0.442146 0.050452 0.000000 0.000000 0.000000 1.127309 -0.558259 0.372599 17.790245 2.273948 -0.464354 11.390603 -0.152950 3.134093 0.000000 0.000000 0.000000 1.054898 -0.056457 -0.140074 12.112240 -36.636711 -0.497988 1.726867 -1.067162 -2.977688 13.717962 18.172424 -47.372519 -1.388908 -36.573262 -0.047500 0.000000 0.000000 0.000000 0.360066 -0.226532 0.717359 0.612223 -1.827882 7.037611 1.966181 6.016549 -1.334676 0.940062 16.224288 36.613895 0.682099 15.105858 1.243895 0.000000 0.000000 0.000000 
-0.381219 101.097427 -5.394543 0.000000 0.000000 0.000000 3.250196 6.236272 -0.196172 -17.689089 8.528121 5.825429 23.248323 2.115607 1.302393 -9.994460 0.996392 -4.709411 -1.359333 0.656813 0.691396 0.000000 0.000000 0.000000 3.514711 5.926760 -0.535732 -13.186213 -5.749721 -6.340519 18.124657 -9.087133 1.542668 -4.046815 -16.595029 1.511240 -1.445664 -0.682294 -2.100149 0.000000 0.000000 0.000000 4.289078 3.491443 -1.265853 17.297587 -2.376124 -0.202830 0.427661 -0.137597 0.991368 1.119467 -0.475584 0.035130 0.000000 0.000000 0.000000 1.144822 -0.585528 0.332088 17.660914 1.611911 -0.221287 11.342715 -2.270791 4.081700 0.000000 0.000000 0.000000 1.153801 -0.113137 -0.141793 11.831035 -36.167470 -0.462096 1.835980 -0.719557 -2.831192 14.747049 18.408504 -47.915782 -1.500168 -36.370358 -0.164474 0.000000 0.000000 0.000000 0.426935 -0.267150 0.725215 0.431915 -2.019666 6.794273 2.201224 6.231648 -1.250817 1.237913 15.651643 37.238461 0.666886 14.929486 1.185572 0.000000 0.000000 0.000000 
-0.352522 101.123505 -5.348938 0.000000 0.000000 0.000000 3.038198 6.218778 -0.168278 -17.444368 8.467488 5.692633 23.026646 1.997182 1.392047 -9.902384 0.950962 -4.581045 -1.297645 0.668750 0.626402 0.000000 0.000000 0.000000 3.315093 5.877779 -0.498944 -12.860427 -5.671042 -6.297213 18.051381 -8.977822 1.524140 -3.967643 -16.641537 1.538378 -1.511638 -0.696008 -2.110653 0.000000 0.000000 0.000000 4.061384 3.631873 -1.196190 16.891565 -2.266902 -0.192497 0.525084 -0.155548 1.038277 1.147446 -0.460504 -0.027555 0.000000 0.000000 0.000000 1.138994 -0.594525 0.339998 17.476306 1.058949 -0.054753 11.292975 -3.964839 4.845860 0.000000 0.000000 0.000000 1.257367 -0.162340 -0.087795 11.557295 -35.585593 -0.461383 1.873049 -0.317324 -2.725134 15.259344 18.200916 -48.587982 -1.708176 -36.066739 -0.324906 0.000000 0.000000 0.000000 0.496474 -0.291974 0.773097 0.361932 -2.187935 6.778688 2.413793 6.446185 -1.158644 0.740294 15.321545 38.374748 0.614095 14.531781 1.139116 0.000000 0.000000 0.000000 
-0.341995 101.091934 -5.332333 0.000000 0.000000 0.000000 2.800468 6.220667 -0.133643 -17.240028 8.256920 5.521107 22.935109 1.828968 1.533093 -9.820998 0.905485 -4.473904 -1.216115 0.678880 0.516072 0.000000 0.000000 0.000000 3.070989 5.871304 -0.458351 -12.564347 -5.573460 -6.247134 18.091708 -8.910954 1.517230 -3.988424 -16.725636 1.525391 -1.586163 -0.704138 -2.132419 0.000000 0.000000 0.000000 3.811648 3.816967 -1.130046 16.595007 -2.100053 -0.186998 0.629345 -0.160637 1.121711 1.132944 -0.450513 -0.130672 0.000000 0.000000 0.000000 1.096990 -0.585057 0.384350 17.281381 0.643273 0.012618 11.286431 -5.270490 5.451618 0.000000 0.000000 0.000000 1.338540 -0.195178 -0.005795 11.294741 -34.982176 -0.540027 1.825104 0.079693 -2.685107 15.325677 17.484207 -49.296600 -1.981066 -35.610216 -0.499479 0.000000 0.000000 0.000000 0.554704 -0.284312 0.841437 0.404530 -2.255409 7.076585 2.615225 6.618128 -1.117593 -0.327289 15.228323 39.970820 0.575577 13.903050 1.074295 0.000000 0.000000 0.000000 
-0.347687 101.024521 -5.330009 0.000000 0.000000 0.000000 2.530706 6.270098 -0.064117 -17.014910 7.945915 5.303428 22.884813 1.629504 1.711297 -9.778515 0.863600 -4.382430 -1.137196 0.683259 0.388595 0.000000 0.000000 0.000000 2.766750 5.936895 -0.388345 -12.268984 -5.499384 -6.225941 18.204199 -8.898761 1.516985 -4.090722 -16.854842 1.476578 -1.628971 -0.707706 -2.155478 0.000000 0.000000 0.000000 3.515484 4.066471 -1.029742 16.396081 -1.885889 -0.183015 0.726143 -0.154481 1.219382 1.107681 -0.424733 -0.183451 0.000000 0.000000 0.000000 1.025093 -0.560403 0.453341 17.118281 0.382428 -0.021300 11.347073 -6.202021 5.902318 0.000000 0.000000 0.000000 1.384402 -0.209999 0.085029 11.043336 -34.404684 -0.741594 1.705752 0.423873 -2.700816 15.018695 16.284148 -50.020142 -2.232050 -35.117114 -0.647117 0.000000 0.000000 0.000000 0.598236 -0.249324 0.919526 0.547136 -2.132972 7.682561 2.739023 6.634048 -1.090821 -1.800406 15.271463 41.918558 0.576047 13.302542 0.959108 0.000000 0.000000 0.000000 
-0.366687 100.950912 -5.336781 0.000000 0.000000 0.000000 2.213674 6.396442 0.053097 -16.715971 7.626045 5.052949 22.782502 1.410256 1.891734 -9.753812 0.809528 -4.320553 -1.130685 0.681623 0.285556 0.000000 0.000000 0.000000 2.397235 6.068645 -0.275730 -11.953123 -5.501673 -6.260628 18.346547 -8.936487 1.517582 -4.210527 -17.030385 1.427351 -1.654106 -0.708465 -2.174961 0.000000 0.000000 0.000000 3.160770 4.385772 -0.879153 16.273561 -1.637701 -0.177943 0.803155 -0.139352 1.316960 1.130943 -0.453563 -0.250170 0.000000 0.000000 0.000000 0.929774 -0.525307 0.540537 17.007909 0.285496 -0.123202 11.485858 -6.791733 6.200573 0.000000 0.000000 0.000000 1.389544 -0.209832 0.174004 10.809391 -33.904943 -1.070481 1.541066 0.672285 -2.706862 14.422892 14.677638 -50.788067 -2.376507 -34.723558 -0.725246 0.000000 0.000000 0.000000 0.623286 -0.195031 1.004201 0.763473 -1.759793 8.539114 2.748180 6.510691 -1.125381 -3.551226 15.381694 44.149639 0.635887 12.859283 0.782369 0.000000 0.000000 0.000000 
